<svg id="splitsvg" xmlns="http://www.w3.org/2000/svg" xmlns:xlink="http://www.w3.org/1999/xlink" width="1380" height="400" version="1.1"><g id="svgg"><path id="path0" d="M3.349 74.811 C 1.007 80.914,0.196 105.278,1.546 128.954 L 4.000 172.000 200.000 172.000 L 396.000 172.000 396.000 120.000 L 396.000 68.000 201.804 65.857 C 42.144 64.096,6.850 65.688,3.349 74.811 M32.000 256.000 L 32.000 320.000 200.000 320.000 L 368.000 320.000 368.000 256.000 L 368.000 192.000 344.438 192.000 C 322.005 192.000,320.760 193.820,318.438 230.000 L 316.000 268.000 200.000 268.000 L 84.000 268.000 81.562 230.000 C 79.240 193.820,77.995 192.000,55.562 192.000 L 32.000 192.000 32.000 256.000 M96.000 224.000 L 96.000 256.000 200.000 256.000 L 304.000 256.000 304.000 224.000 L 304.000 192.000 270.516 192.000 C 247.147 192.000,231.438 197.255,218.516 209.395 L 200.000 226.789 181.484 209.395 C 168.562 197.255,152.853 192.000,129.484 192.000 L 96.000 192.000 96.000 224.000 M186.286 205.714 C 199.238 218.667,200.762 218.667,213.714 205.714 C 226.667 192.762,225.905 192.000,200.000 192.000 C 174.095 192.000,173.333 192.762,186.286 205.714 M32.000 340.000 C 32.000 346.600,35.600 352.000,40.000 352.000 C 44.400 352.000,48.000 346.600,48.000 340.000 C 48.000 333.400,44.400 328.000,40.000 328.000 C 35.600 328.000,32.000 333.400,32.000 340.000 M64.000 340.000 C 64.000 346.600,67.600 352.000,72.000 352.000 C 76.400 352.000,80.000 346.600,80.000 340.000 C 80.000 333.400,76.400 328.000,72.000 328.000 C 67.600 328.000,64.000 333.400,64.000 340.000 M96.000 340.000 C 96.000 346.600,99.600 352.000,104.000 352.000 C 108.400 352.000,112.000 346.600,112.000 340.000 C 112.000 333.400,108.400 328.000,104.000 328.000 C 99.600 328.000,96.000 333.400,96.000 340.000 M128.000 340.000 C 128.000 346.600,131.600 352.000,136.000 352.000 C 140.400 352.000,144.000 346.600,144.000 340.000 C 144.000 333.400,140.400 328.000,136.000 328.000 C 131.600 328.000,128.000 333.400,128.000 340.000 M160.000 340.000 C 160.000 346.600,163.600 352.000,168.000 352.000 C 172.400 352.000,176.000 346.600,176.000 340.000 C 176.000 333.400,172.400 328.000,168.000 328.000 C 163.600 328.000,160.000 333.400,160.000 340.000 M192.000 340.000 C 192.000 346.600,195.600 352.000,200.000 352.000 C 204.400 352.000,208.000 346.600,208.000 340.000 C 208.000 333.400,204.400 328.000,200.000 328.000 C 195.600 328.000,192.000 333.400,192.000 340.000 M224.000 340.000 C 224.000 346.600,227.600 352.000,232.000 352.000 C 236.400 352.000,240.000 346.600,240.000 340.000 C 240.000 333.400,236.400 328.000,232.000 328.000 C 227.600 328.000,224.000 333.400,224.000 340.000 M256.000 340.000 C 256.000 346.600,259.600 352.000,264.000 352.000 C 268.400 352.000,272.000 346.600,272.000 340.000 C 272.000 333.400,268.400 328.000,264.000 328.000 C 259.600 328.000,256.000 333.400,256.000 340.000 M288.000 340.000 C 288.000 346.600,291.600 352.000,296.000 352.000 C 300.400 352.000,304.000 346.600,304.000 340.000 C 304.000 333.400,300.400 328.000,296.000 328.000 C 291.600 328.000,288.000 333.400,288.000 340.000 M320.000 340.000 C 320.000 346.600,323.600 352.000,328.000 352.000 C 332.400 352.000,336.000 346.600,336.000 340.000 C 336.000 333.400,332.400 328.000,328.000 328.000 C 323.600 328.000,320.000 333.400,320.000 340.000 M352.000 340.000 C 352.000 346.600,355.600 352.000,360.000 352.000 C 364.400 352.000,368.000 346.600,368.000 340.000 C 368.000 333.400,364.400 328.000,360.000 328.000 C 355.600 328.000,352.000 333.400,352.000 340.000  M -25 0 L -5 0 L -5 20 L -25 20 Z M 405 0 L 425 0 L 425 20 L 405 20 Z" stroke="none" fill="#000000" fill-rule="evenodd" transform="translate(30,0)"></path></g></svg>