<svg id="svg" xmlns="http://www.w3.org/2000/svg" xmlns:xlink="http://www.w3.org/1999/xlink" width="400" height="400" viewBox="0, 0, 400,400"><g id="svgg"><path id="path0" d="M188.029 63.727 C 174.635 66.711,162.544 72.785,152.125 81.763 C 145.802 87.213,47.563 191.156,42.719 197.523 C 5.654 246.233,27.417 316.909,85.048 334.987 L 91.797 337.104 161.582 337.326 L 231.367 337.548 236.972 332.183 C 240.056 329.232,271.230 299.832,306.250 266.849 C 381.494 195.982,375.000 202.443,375.000 198.449 C 375.000 191.775,378.395 192.188,323.438 192.188 C 296.797 192.188,275.000 192.078,275.000 191.943 C 275.000 191.809,275.898 189.837,276.996 187.562 C 300.440 138.965,275.953 80.170,226.006 65.131 C 217.259 62.497,196.927 61.745,188.029 63.727 M219.304 77.385 C 261.983 87.211,285.141 138.553,265.666 180.171 C 260.208 191.833,257.205 195.295,221.078 231.564 L 186.137 266.644 186.893 262.033 C 195.157 211.631,141.424 159.733,91.016 169.432 C 88.868 169.845,87.027 170.100,86.925 169.998 C 86.445 169.518,160.016 92.483,163.914 89.384 C 179.025 77.372,199.749 72.883,219.304 77.385 M119.531 183.707 C 160.249 193.953,185.008 241.817,168.308 278.000 C 145.538 327.336,78.553 319.622,64.862 266.086 C 53.209 220.522,102.306 189.270,134.194 221.953 C 157.234 245.567,147.683 284.558,118.882 284.467 C 90.718 284.378,75.077 239.476,101.598 234.848 C 110.292 233.330,121.875 242.988,121.875 251.755 C 121.875 256.679,124.475 259.375,129.225 259.375 C 142.112 259.375,133.039 232.553,117.577 224.941 C 82.106 207.479,58.999 255.238,88.590 284.852 C 116.360 312.644,160.106 293.996,160.270 254.297 C 160.447 211.428,117.406 182.192,81.010 200.458 C 23.794 229.172,50.696 322.081,116.797 324.050 C 146.196 324.927,147.752 323.856,215.227 256.294 L 266.000 205.456 308.529 205.657 L 351.058 205.859 287.928 265.479 L 224.798 325.099 161.422 324.791 C 106.859 324.526,97.326 324.310,92.861 323.238 C 52.537 313.557,28.476 269.811,41.191 229.297 C 52.116 194.485,85.398 175.117,119.531 183.707 " stroke="none" fill="#6D2A33" fill-rule="evenodd"></path></g></svg>